<?xml version="1.0" encoding="utf-8"?>
<!-- Generator: Adobe Illustrator 26.5.0, SVG Export Plug-In . SVG Version: 6.00 Build 0)  -->
<svg version="1.1" id="Layer_1" xmlns="http://www.w3.org/2000/svg" xmlns:xlink="http://www.w3.org/1999/xlink" x="0px" y="0px"
	 viewBox="0 0 400 401.6" style="enable-background:new 0 0 400 401.6;" xml:space="preserve">
<style type="text/css">
	.st0{fill:#ED2A33;}
	.st1{fill:#FBDC08;}
	.st2{fill:#FEFDFD;}
	.st3{fill:#FEFCFC;}
	.st4{fill:#FEF9F9;}
	.st5{fill:#FDF7F8;}
	.st6{fill:#FEFEFC;}
</style>
<g>
	<path d="M327.4,322.5c0,25.5,0,50.8,0,76.2c-27.1,0-54.2,0-81.4,0c0-0.6-0.1-1.2-0.1-1.7c0-20.5,0-41.1,0-61.6
		c0-1.1,0.3-1.7,1.2-2.6c3.5-3.2,6.8-6.6,9.9-10.2c2.6-3.1,4.9-6.4,7-9.9c1.9-3.3,3.6-6.7,4.8-10.3c1.5-4.3,2.7-8.8,3.7-13.2
		c0.6-2.7,0.6-5.5,0.9-8.3c0.2-1.6,0.1-3.2,0.4-4.7c0.2-0.8,1.1-1.4,1.5-2.2c1.5-2.9,2.8-5.9,4.3-8.8c1.2-2.4,2.3-5,3.9-7.1
		c3.2-4.2,7.2-7.4,12.2-9.4c3.3-1.3,6.9-2.8,9.5-5.1c9.3-8.1,15.2-18,15.1-31c-0.1-8.4-1.4-16.6-2.4-24.8c-0.4-3.4-0.9-6.7-1.6-10.1
		c-0.5,2.8-0.9,5.7-1.4,8.5c-1.6,8.4-3.2,16.9-5,25.3c-2.3,10.9-9,18-19.2,22.1c-2.5,1-5,2.2-7.5,3.4c-6.1,2.8-11.2,6.7-14.1,13.2
		c-1-1.3-0.8-2.3,0.2-3.5c3.4-4.3,4.8-9.5,5.6-14.8c1.4-9.6,6.1-16.9,14.9-21.3c11.9-5.8,18.2-16.1,23-27.7
		c3.2-7.8,2.6-15.7,0.5-23.5c-2.5-9.3-5.6-18.4-8.4-27.5c-0.2,0-0.4,0.1-0.6,0.1c-0.1,1.6-0.2,3.2-0.2,4.8c-0.1,1.7-0.1,3.3-0.2,5
		c-0.3,10.4-0.8,20.8-3.5,30.9c-1.8,6.8-5.2,12.6-11.1,16.7c-4.3,3-8.5,6.1-13.1,8.6c-10.4,5.9-17.1,14.3-19.4,26.1
		c-0.2,1.1-0.6,2.2-0.9,3.3c0,0.1-0.1,0.2-0.2,0.3c-1.4-1.4-2.9-2.7-4.3-4.1c-0.2-0.2-0.3-0.9-0.2-1.2c2.6-4.9,2.9-10.2,3.7-15.5
		c1.2-7.3,4.8-13.2,10.9-17.5c0.4-0.3,0.9-0.6,1.3-0.9c10.8-5.7,16.6-15.4,21-26.3c3.4-8.5,3.3-17,0.5-25.5
		c-3.2-9.5-6.9-18.9-10.5-28.3c-0.2,0-0.4,0.1-0.6,0.1c0,1.1,0,2.2,0,3.3c0,1.1,0.1,2.3,0.1,3.4c0.3,10.4,0.6,20.8-1.3,31.1
		c-1.4,7.4-4.4,13.9-10.5,18.6c-4.4,3.4-8.8,6.7-13.2,10c-2.1,1.6-4.2,3.3-6.5,5c0-7.9,0-15.6,0-23.9c-0.6,0.8-0.9,1.2-1.1,1.6
		c-8.9,15.2-17.8,30.5-26.6,45.7c-0.7,1.2-1.3,1.5-2.8,1.2c-24.6-4.8-46.3,1.1-65,17.8c-11.6,10.4-18.7,23.4-22.2,38.5
		c-1.6,6.8-2,13.8-1.4,20.8c1.3,15.4,6.7,29.2,16.6,41.2c0.3,0.4,0.6,0.9,1,1.3c2.1,2.3,2,2.3,0.5,4.9c-5.1,8.7-10.2,17.4-15.4,26.2
		c-7.5,12.8-15.1,25.6-22.6,38.4c-0.9,1.5-1.7,3-2.6,4.4c-0.3,0.4-0.9,0.9-1.4,0.9c-26.7,0-53.3,0-80,0c-0.1,0-0.2-0.1-0.4-0.1
		c2.2-3.9,4.5-7.8,6.7-11.7c4-6.9,7.9-13.9,11.9-20.8c2.8-4.8,5.7-9.6,8.5-14.4c3.4-5.9,6.6-11.9,10-17.7
		c4.5-7.8,9.2-15.6,13.7-23.4c3.5-6,6.8-12,10.2-18c3.2-5.5,6.4-10.9,9.6-16.4c3.5-6,6.9-12.1,10.4-18.1c3.3-5.8,6.8-11.5,10.1-17.3
		c2.9-4.9,5.6-9.9,8.5-14.9c3.3-5.7,6.7-11.3,10-17c15.3-26.3,30.5-52.7,45.7-79c24.6-42.6,49.2-85.2,73.9-127.8
		c0.3-0.5,1.1-1.1,1.7-1.1c24.4-0.1,48.8,0,73.2,0c0.2,0,0.3,0.1,0.7,0.1c0,0.6,0,1.3,0,1.9c0,88.4,0,176.8,0,265.3"/>
	<path class="st0" d="M233.2,216c3.5-3.4,4.6-7.9,5.5-12.4c0.3-1.5,0.6-2.9,0.9-4.4c1.5-8.4,6.2-14.6,13-19.5
		c5.1-3.7,10-7.4,15-11.2c7.5-5.8,11.1-13.7,12.2-22.8c0.8-6.6,1.2-13.2,1.8-20.4c1.3,4.1,2.4,7.8,3.6,11.5
		c4.2,12.8,0.2,24.1-6.5,34.8c-3.2,5.1-7.3,9-12.5,12c-6.3,3.6-10.9,8.7-13.3,15.5c-1.1,3.1-1.7,6.5-2.1,9.9
		c-0.7,5.5-2.1,10.7-5.7,15c3.5,3.8,6.9,7.5,10.6,11.6c1.2-3.1,2.3-6.1,3.3-9.1c0.8-2.4,1.4-4.8,2-7.2c1.9-7.1,6-12.5,12-16.5
		c2.4-1.6,5-3,7.4-4.7c4.3-2.9,8.6-5.8,12.7-8.9c6.4-5,9.5-12,10.9-19.7c1.3-6.7,2.1-13.5,3-19.9c0,0,0.2,0.5,0.4,1
		c2,6.5,3.6,13.1,3.7,19.9c0.1,5.5-1.7,10.4-4.1,15.2c-3.3,6.5-7,12.6-13,17c-2,1.5-4.2,2.7-6.4,3.9c-9.4,5.1-14.8,12.9-16.4,23.5
		c-1,6.5-3,12.5-8.1,17c-0.3,0.2-0.5,0.9-0.4,1.2c1.4,4.3,2.9,8.5,4.5,12.9c1.1-2.5,2.3-5,3.2-7.5c2.6-7.2,7.7-11.9,14.6-15
		c4.2-1.9,8.4-4,12.5-6c6.9-3.4,11.3-9,13.7-16.2c1.8-5.4,3.2-10.9,4.8-16.4c0.1,1.3,0.4,2.7,0.4,4.1c0,4.9,0.2,9.8-0.4,14.6
		c-0.7,6-4.1,10.9-7.7,15.6c-3.5,4.5-7.7,7.9-13.1,9.7c-7.9,2.6-13.3,8.3-17.4,15.2c-1.2,1.9-1.8,4.2-2.5,6.4
		c-1.2,3.6-3.3,6.5-6.2,8.9c-0.3,0.3-0.7,0.8-0.7,1.3c-0.6,4.9-0.9,9.9-1.8,14.7c-1.9,9.9-6.3,18.8-12.3,26.8
		c-7.1,9.4-16,16.6-26.8,21.2c-4.8,2-9.9,3.4-14.9,4.7c-5.6,1.4-11.4,1.2-17.1,0.9c-6.5-0.3-12.6-1.8-18.7-3.9
		c-6.9-2.4-13.1-5.9-18.7-10.4c-7.6-6.1-13.8-13.6-18.3-22.3c-3.4-6.6-5.9-13.6-6.8-21c-0.7-6-0.8-12.1-0.4-18.1
		c0.5-6.8,2.5-13.3,5.2-19.5c2.8-6.5,6.4-12.5,11.1-17.7c10-11,22.2-18.6,36.9-21.8c16.4-3.5,32-1.4,46.9,6.4
		C232.6,215.8,232.9,215.9,233.2,216z M221.7,225.2c-14.7-5.9-29.2-6.1-43.8-0.2c3.7,3,7.3,5.7,10.7,8.5c3.3,2.7,5,6.2,4.7,10.5
		c-0.4,4.4-1,8.7-1.6,13.1c-0.7,5.8,0.1,11.2,2.9,16.7c3.2,0,6.4,0,9.7,0c0.5,0,1.2-0.5,1.4-1c2.2-4.8,3.2-9.8,2.4-15.1
		c-0.5-3.1-0.9-6.2-1.4-9.3c-1.1-6.5,0.3-12,5.9-16.1C215.6,230.1,218.5,227.7,221.7,225.2z M225.1,278.1c0.4-3.3,0.7-6.4,1.1-9.5
		c1-7.9,4.1-14.6,11-19.2c2.6-1.7,5-3.6,7.6-5.5c-3-4.2-6.4-7.8-10.3-10.9c-0.3-0.3-1.2-0.3-1.5-0.1c-2.5,1.4-5.1,2.7-7.2,4.5
		c-1.8,1.5-3.6,3.4-4.3,5.5c-1.7,4.8-2,9.8-1,14.9c0.9,4.5,1,9.1-1,13.5c-0.7,1.4-1,3-1.6,4.6C220.2,276.6,222.6,277.3,225.1,278.1z
		 M181.6,274.5c-0.1-0.4-0.2-0.8-0.3-1.1c-2.8-5.6-2.6-11.4-1.7-17.4c1.4-9.2-0.6-17.2-9.8-22.1c-4-2.1-4-2.4-7.2,0.7
		c-2.9,2.7-5.5,5.7-8.2,8.5c3.4,2.6,6.4,5,9.5,7.2c5.2,3.8,8,9,9.1,15.2c0.6,3.5,1.1,7,1.6,10.5
		C176.9,275.6,179.2,275.1,181.6,274.5z M250.2,253.7c-4,2-7.2,4.5-9.3,8.3c-3.3,6-4.7,12.5-5.3,19.2c0,0.5,0.4,1.3,0.9,1.6
		c0.9,0.7,1.9,1.1,3,1.7c0.3-0.6,0.5-1,0.6-1.4c1.3-4,3.8-6.9,7.6-8.8c2.1-1,4.1-2.1,6.1-3.3c0.4-0.2,0.9-1,0.9-1.4
		C253.9,264.2,252.6,258.9,250.2,253.7z M159.1,281.6c1.3-0.6,2.3-1.1,3.3-1.4c1.1-0.4,1.4-0.9,1.3-2.1c-0.7-5.3-2-10.5-4.4-15.3
		c-2.3-4.5-6.1-7.3-10.9-9.7c-1.2,4.4-2.6,8.5-3.6,12.7c-0.9,3.8-0.8,3.8,2.7,5.7c1.4,0.7,2.7,1.5,4,2.3
		C154.8,275.7,157.7,277.8,159.1,281.6z M252.3,294.4c1-4.9,1.9-9.4,2.8-13.9c-0.2-0.1-0.4-0.2-0.6-0.2c-3.6,2.2-5.9,5.4-7.7,9.2
		C248.6,291.1,250.2,292.6,252.3,294.4z M144.5,279.7c-0.3,0.2-0.5,0.3-0.8,0.5c0.5,3.3,1.1,6.5,1.6,10.1c2.1-1.6,3.9-3,5.9-4.6
		C149,283.6,146.7,281.6,144.5,279.7z"/>
	<path class="st1" d="M222,351.9c0,15.5,0,31,0,46.6c-15.6,0-31,0-46.6,0c0-15.5,0-31,0-46.6C190.9,351.9,206.3,351.9,222,351.9z
		 M189.3,384.6c6.5,0,12.9,0,19.4,0c0-6.5,0-13,0-19.5c-6.5,0-12.9,0-19.4,0C189.3,371.7,189.3,378.1,189.3,384.6z"/>
	<path class="st2" d="M221.7,225.2c-3.2,2.5-6.1,4.9-9.1,7.1c-5.6,4.1-7,9.6-5.9,16.1c0.5,3.1,0.9,6.2,1.4,9.3
		c0.8,5.3-0.3,10.3-2.4,15.1c-0.2,0.5-0.9,1-1.4,1c-3.3,0.1-6.5,0-9.7,0c-2.8-5.5-3.6-11-2.9-16.7c0.5-4.4,1.2-8.7,1.6-13.1
		c0.4-4.3-1.4-7.8-4.7-10.5c-3.4-2.8-7-5.6-10.7-8.5C192.5,219.1,206.9,219.3,221.7,225.2z"/>
	<path class="st3" d="M225.1,278.1c-2.5-0.7-4.9-1.4-7.4-2.2c0.5-1.6,0.9-3.2,1.6-4.6c2-4.4,2-8.9,1-13.5c-1-5.1-0.7-10.1,1-14.9
		c0.7-2.1,2.6-4,4.3-5.5c2.2-1.8,4.8-3.1,7.2-4.5c0.4-0.2,1.2-0.2,1.5,0.1c3.9,3.1,7.4,6.7,10.3,10.9c-2.6,1.9-5,3.8-7.6,5.5
		c-6.9,4.6-10,11.3-11,19.2C225.8,271.6,225.4,274.7,225.1,278.1z"/>
	<path class="st3" d="M181.6,274.5c-2.4,0.5-4.7,1-7,1.6c-0.5-3.5-1-7-1.6-10.5c-1.1-6.2-3.9-11.4-9.1-15.2
		c-3.1-2.2-6.1-4.6-9.5-7.2c2.8-2.9,5.4-5.8,8.2-8.5c3.3-3.1,3.3-2.8,7.2-0.7c9.1,4.8,11.1,12.9,9.8,22.1c-0.9,6-1.1,11.8,1.7,17.4
		C181.4,273.7,181.5,274.1,181.6,274.5z"/>
	<path class="st3" d="M250.2,253.7c2.3,5.2,3.7,10.5,4.4,15.9c0.1,0.4-0.4,1.2-0.9,1.4c-2,1.2-4.1,2.2-6.1,3.3
		c-3.7,1.9-6.3,4.8-7.6,8.8c-0.1,0.4-0.4,0.8-0.6,1.4c-1.1-0.6-2.1-1-3-1.7c-0.5-0.3-0.9-1.1-0.9-1.6c0.6-6.7,2-13.3,5.3-19.2
		C243,258.2,246.2,255.7,250.2,253.7z"/>
	<path class="st3" d="M159.1,281.6c-1.4-3.8-4.3-5.9-7.5-7.8c-1.3-0.8-2.7-1.5-4-2.3c-3.5-1.9-3.6-1.9-2.7-5.7
		c1-4.2,2.3-8.3,3.6-12.7c4.8,2.4,8.6,5.2,10.9,9.7c2.5,4.8,3.7,10,4.4,15.3c0.2,1.2-0.2,1.7-1.3,2.1
		C161.3,280.5,160.4,281.1,159.1,281.6z"/>
	<path class="st4" d="M252.3,294.4c-2.1-1.9-3.7-3.3-5.4-4.9c1.7-3.8,4.1-7,7.7-9.2c0.2,0.1,0.4,0.2,0.6,0.2
		C254.2,285,253.3,289.5,252.3,294.4z"/>
	<path class="st5" d="M144.5,279.7c2.2,2,4.4,3.9,6.8,6c-2.1,1.6-3.8,3-5.9,4.6c-0.6-3.5-1.1-6.8-1.6-10.1
		C144,280,144.3,279.9,144.5,279.7z"/>
	<path class="st6" d="M189.3,384.6c0-6.5,0-13,0-19.5c6.5,0,12.9,0,19.4,0c0,6.5,0,13,0,19.5C202.1,384.6,195.7,384.6,189.3,384.6z"
		/>
</g>
</svg>
