<?xml version="1.0" encoding="utf-8"?>
<!-- Generator: Adobe Illustrator 26.4.1, SVG Export Plug-In . SVG Version: 6.00 Build 0)  -->
<svg version="1.1" id="Layer_1" xmlns="http://www.w3.org/2000/svg" xmlns:xlink="http://www.w3.org/1999/xlink" x="0px" y="0px"
	 viewBox="0 0 240 240" style="enable-background:new 0 0 240 240;" xml:space="preserve">
<style type="text/css">
	.Arched_x0020_Green{fill:url(#SVGID_1_);stroke:#FFFFFF;stroke-width:0.25;stroke-miterlimit:1;}
	.st0{fill:#005A9C;stroke:#005A9C;stroke-width:2.3848;}
	.st1{fill:#005A9C;stroke:#005A9C;stroke-width:0.5961;}
</style>
<linearGradient id="SVGID_1_" gradientUnits="userSpaceOnUse" x1="-190.9912" y1="517.7607" x2="-190.2841" y2="517.0536">
	<stop  offset="0" style="stop-color:#20AC4B"/>
	<stop  offset="0.9831" style="stop-color:#19361A"/>
</linearGradient>
<g>
	<g>
		<path class="st0" d="M53.9,185.5c0,2.4-0.3,4.5-1,6.4c-0.7,1.9-1.6,3.6-2.8,4.9c-1.1,1.3-2.5,2.3-4,3c-1.5,0.7-3.2,1.1-4.9,1.1
			c-1.5,0-2.9-0.2-4.1-0.5c-1.2-0.3-2.5-0.8-3.7-1.5V211h-4.9v-39.7h4.9v3.1c1.3-1.1,2.8-2,4.4-2.7c1.6-0.7,3.3-1.1,5.2-1.1
			c3.5,0,6.2,1.3,8.1,4C52.9,177.1,53.9,180.8,53.9,185.5z M48.8,185.6c0-3.5-0.6-6.1-1.8-7.8c-1.2-1.7-3-2.6-5.5-2.6
			c-1.4,0-2.8,0.3-4.2,0.9c-1.4,0.6-2.8,1.4-4.1,2.4v16.4c1.4,0.6,2.6,1,3.6,1.3c1,0.2,2.1,0.3,3.4,0.3c2.7,0,4.8-0.9,6.3-2.8
			C48,191.9,48.8,189.2,48.8,185.6z"/>
		<path class="st0" d="M86.8,200.3H82v-16.5c0-1.3-0.1-2.6-0.2-3.7c-0.2-1.2-0.4-2.1-0.8-2.7c-0.4-0.7-1-1.3-1.9-1.6
			c-0.8-0.4-1.9-0.5-3.1-0.5c-1.3,0-2.7,0.3-4.1,1c-1.4,0.7-2.8,1.5-4.2,2.5v21.6h-4.9v-40.4h4.9v14.7c1.5-1.3,3.1-2.2,4.7-3
			c1.6-0.7,3.3-1.1,5-1.1c3.1,0,5.5,0.9,7.1,2.8c1.6,1.9,2.5,4.6,2.5,8.1V200.3z"/>
		<path class="st0" d="M122.5,171.3L105.6,211h-5.2l5.4-12.1l-11.5-27.6h5.3l8.9,21.5l9-21.5H122.5z"/>
		<path class="st0" d="M150.8,191.8c0,2.6-1.1,4.8-3.3,6.5c-2.2,1.7-5.2,2.5-8.9,2.5c-2.1,0-4.1-0.3-5.9-0.8
			c-1.8-0.5-3.3-1.1-4.5-1.7v-5.5h0.3c1.5,1.2,3.2,2.1,5.1,2.8c1.9,0.7,3.7,1,5.4,1c2.1,0,3.8-0.3,5-1c1.2-0.7,1.8-1.8,1.8-3.3
			c0-1.1-0.3-2-1-2.6c-0.7-0.6-1.9-1.1-3.8-1.5c-0.7-0.2-1.6-0.3-2.7-0.5c-1.1-0.2-2.1-0.4-3-0.7c-2.5-0.7-4.3-1.7-5.4-3
			c-1.1-1.3-1.6-2.9-1.6-4.8c0-1.2,0.2-2.3,0.7-3.4c0.5-1.1,1.2-2,2.2-2.8c1-0.8,2.2-1.5,3.7-1.9c1.5-0.5,3.2-0.7,5-0.7
			c1.7,0,3.5,0.2,5.3,0.6c1.8,0.4,3.2,0.9,4.4,1.5v5.2h-0.3c-1.2-0.9-2.7-1.7-4.5-2.4c-1.8-0.6-3.5-1-5.2-1c-1.8,0-3.3,0.3-4.5,1
			c-1.2,0.7-1.8,1.7-1.8,3.1c0,1.2,0.4,2.1,1.1,2.7c0.7,0.6,1.9,1.1,3.5,1.5c0.9,0.2,1.9,0.4,3,0.6c1.1,0.2,2,0.4,2.8,0.6
			c2.3,0.5,4,1.4,5.2,2.7C150.2,188,150.8,189.7,150.8,191.8z"/>
		<path class="st0" d="M163.9,200.3H159v-28.9h4.9V200.3z"/>
		<path class="st0" d="M196.2,198.4c-1.6,0.8-3.1,1.4-4.6,1.8c-1.5,0.4-3,0.6-4.6,0.6c-2.1,0-4-0.3-5.7-0.9
			c-1.7-0.6-3.2-1.5-4.5-2.8c-1.3-1.2-2.2-2.8-2.9-4.7c-0.7-1.9-1-4.1-1-6.7c0-4.7,1.3-8.5,3.9-11.2c2.6-2.7,6-4.1,10.3-4.1
			c1.6,0,3.3,0.2,4.9,0.7c1.6,0.5,3,1,4.4,1.7v5.4h-0.3c-1.5-1.1-3-2-4.6-2.7c-1.6-0.6-3.1-0.9-4.6-0.9c-2.7,0-4.9,0.9-6.5,2.8
			c-1.6,1.9-2.4,4.6-2.4,8.2c0,3.5,0.8,6.2,2.3,8c1.6,1.9,3.7,2.8,6.6,2.8c1,0,2-0.1,3-0.4c1-0.3,1.9-0.6,2.7-1
			c0.7-0.4,1.4-0.7,2-1.1c0.6-0.4,1.1-0.8,1.5-1h0.3V198.4z"/>
		<path class="st0" d="M224.4,191.8c0,2.6-1.1,4.8-3.3,6.5c-2.2,1.7-5.2,2.5-8.9,2.5c-2.1,0-4.1-0.3-5.9-0.8
			c-1.8-0.5-3.3-1.1-4.5-1.7v-5.5h0.3c1.5,1.2,3.2,2.1,5.1,2.8c1.9,0.7,3.7,1,5.4,1c2.1,0,3.8-0.3,5-1c1.2-0.7,1.8-1.8,1.8-3.3
			c0-1.1-0.3-2-1-2.6c-0.7-0.6-1.9-1.1-3.8-1.5c-0.7-0.2-1.6-0.3-2.7-0.5c-1.1-0.2-2.1-0.4-3-0.7c-2.5-0.7-4.3-1.7-5.4-3
			c-1.1-1.3-1.6-2.9-1.6-4.8c0-1.2,0.2-2.3,0.7-3.4c0.5-1.1,1.2-2,2.2-2.8c1-0.8,2.2-1.5,3.7-1.9c1.5-0.5,3.2-0.7,5-0.7
			c1.7,0,3.5,0.2,5.2,0.6c1.8,0.4,3.2,0.9,4.4,1.5v5.2H223c-1.2-0.9-2.7-1.7-4.5-2.4c-1.8-0.6-3.5-1-5.2-1c-1.8,0-3.3,0.3-4.5,1
			c-1.2,0.7-1.8,1.7-1.8,3.1c0,1.2,0.4,2.1,1.1,2.7c0.7,0.6,1.9,1.1,3.5,1.5c0.9,0.2,1.9,0.4,3,0.6c1.1,0.2,2,0.4,2.8,0.6
			c2.3,0.5,4,1.4,5.2,2.7C223.8,188,224.4,189.7,224.4,191.8z"/>
	</g>
</g>
<g>
	<g>
		<path d="M62.7,57.3H66l23.9,60.9c1,2.4,2.9,3.7,5.9,3.7h2.1v3.4H71.3v-3.4h2.1c2.8,0,4.7-0.3,5.8-0.9c0.8-0.4,1.2-1.1,1.2-1.9
			c0-0.5-0.1-1-0.3-1.6l-5.5-14.1H48.3l-3.2,8.1c-0.8,2.1-1.2,3.8-1.2,5.1c0,1.5,0.7,2.7,2,3.8c1.4,1,3.4,1.6,6,1.6h2.3v3.4H30v-3.4
			c2.6,0,4.6-0.6,6.1-1.7c1.5-1.1,2.9-3.2,4.1-6.4L62.7,57.3z M61.5,70.1L49.7,99.9h23.6L61.5,70.1z"/>
	</g>
</g>
<g>
	<path d="M192.5,64.3l4.1-6h3.1l0.3,24.3h-3.1c-1.8-7.4-4.6-12.8-8.2-16.2c-3.6-3.4-7.8-5.1-12.5-5.1c-3.9,0-7.2,1.2-9.7,3.5
		c-2.5,2.4-3.8,5.2-3.8,8.6c0,2.1,0.5,4,1.4,5.6c1,1.6,2.4,2.9,4.3,3.9c1.9,1,5.5,2.1,10.8,3.2c7.4,1.7,12.6,3.3,15.6,5
		c3,1.7,5.2,3.7,6.7,6.2c1.5,2.5,2.2,5.4,2.2,8.8c0,6-2,11-6.1,14.9c-4.1,3.9-9.3,5.9-15.7,5.9c-6.9,0-12.9-2.2-18-6.7l-5.1,6.3
		h-3.1v-25.8h3.1c1.3,7.1,4.1,12.7,8.5,16.8c4.4,4.1,9.3,6.2,14.9,6.2c4.5,0,8.1-1.3,10.9-3.9c2.8-2.6,4.2-5.8,4.2-9.5
		c0-2.1-0.5-4-1.6-5.6c-1.1-1.6-2.7-3-5-4c-2.3-1.1-6.8-2.4-13.4-4c-7.3-1.7-12.3-3.7-15-5.9c-3.8-3.1-5.7-7.4-5.7-13
		c0-5.8,1.9-10.6,5.6-14.4c3.8-3.7,8.5-5.6,14.4-5.6c2.8,0,5.5,0.5,8,1.5C187.1,60.3,189.8,62,192.5,64.3z"/>
</g>
<g>
	<path d="M97.7,58.5h32.9c7.4,0,13.1,1.7,17,5.1c3.9,3.4,5.9,7.8,5.9,13.2c0,5.4-1.8,9.6-5.4,12.5c-5,3.9-11.1,5.9-18.3,5.9h-11.9
		v22.6c0,1.3,0.3,2.3,0.9,2.8c0.8,0.7,1.9,1.1,3.3,1.1h7.5v3.4H97.7v-3.4h6.7c1.3,0,2.3-0.3,2.9-0.8c0.6-0.5,0.9-1.2,0.9-2.1v-53
		c0-1.3-0.4-2.3-1.2-2.9c-0.8-0.6-2.3-0.9-4.4-0.9h-5V58.5z M117.8,91.8h9c5.7,0,9.8-1.2,12.4-3.6c2.5-2.4,3.8-6.3,3.8-11.8
		c0-3.8-0.6-6.8-1.7-8.8c-1.1-2.1-2.8-3.6-5-4.6c-2.2-1-5.8-1.5-10.8-1.5c-3.3,0-5.4,0.3-6.3,0.9c-0.9,0.6-1.3,1.7-1.3,3.3V91.8z"/>
</g>
<path class="st1" d="M69.5,109.5C36.3,85.1,13.2,56.1,20.9,41.6c6.6-12.5,31.4-13.4,63.2-4.4C47.5,25.8,18.4,25.9,10.9,40
	C2.4,56,28.8,88.2,67,115.1c8.9,6,18.6,11.7,28.9,17.2c58.5,31.1,114.7,39.8,125.5,19.5c2.9-5.5,2.2-12.7-1.6-20.7
	c2.3,6.3,2.5,11.8,0.1,16.3c-10.2,19.2-63.4,11-118.7-18.4C89.7,122.7,79.1,116.3,69.5,109.5L69.5,109.5z"/>
<g>
	<path d="M151.9,153.8c0-5.2,4.2-9.3,9.3-9.3c5.2,0,9.3,4.2,9.3,9.3c0,5.2-4.2,9.3-9.3,9.3C156.1,163.1,151.9,158.9,151.9,153.8z"/>
</g>
<g>
	<path d="M220.4,159.8h-2v-0.7h5v0.7h-2v6h-0.9V159.8z"/>
	<path d="M229.7,162.8c0-0.9-0.1-2.1-0.1-2.9h0c-0.2,0.8-0.5,1.6-0.8,2.5l-1.2,3.3h-0.7l-1.1-3.2c-0.3-1-0.6-1.8-0.8-2.6h0
		c0,0.8-0.1,1.9-0.1,3l-0.2,2.9h-0.8l0.5-6.7h1.1l1.1,3.2c0.3,0.8,0.5,1.6,0.7,2.3h0c0.2-0.7,0.4-1.4,0.7-2.3l1.2-3.2h1.1l0.4,6.7
		h-0.9L229.7,162.8z"/>
</g>
</svg>
