<?xml version="1.0" encoding="utf-8"?>
<!-- Generator: Adobe Illustrator 26.4.1, SVG Export Plug-In . SVG Version: 6.00 Build 0)  -->
<svg version="1.1" id="Layer_1" xmlns="http://www.w3.org/2000/svg" xmlns:xlink="http://www.w3.org/1999/xlink" x="0px" y="0px"
	 viewBox="0 0 72 72" style="enable-background:new 0 0 72 72;" xml:space="preserve">
<style type="text/css">
	.st0{fill:#ED6D0B;}
	.st1{fill:#FFFFFF;}
</style>
<path class="st0" d="M22.8,59.1c3.8,4.8,8.2,9.1,13.2,12.8c4.9-3.7,9.4-8,13.2-12.8L36,46.3L22.8,59.1z"/>
<path class="st0" d="M16.7,49.9L36,31.4L55.4,50c3.3-5.8,5.7-12.1,7.2-18.7c0.1-0.3,0.1-0.6,0.2-0.9H9.3
	C10.7,37.2,13.2,43.8,16.7,49.9z"/>
<path class="st0" d="M16.7,49.9c1.8,3.2,3.9,6.3,6.2,9.2L36,46.3l13.2,12.8c2.3-2.9,4.3-6,6.2-9.2L36,31.4L16.7,49.9z"/>
<path d="M36,45.9L22.8,58.7C20.7,56,18.7,53,17,50l19-18.3L55,50c-1.7,3.1-3.7,6-5.9,8.8L36,45.9z"/>
<path d="M36,32.1l18.7,18c-1.7,2.9-3.5,5.7-5.6,8.3L36.3,45.9L36,45.6l-0.3,0.3L22.9,58.4c-2.1-2.6-3.9-5.4-5.6-8.3L36,32.1
	 M36,31.4L16.7,49.9c1.8,3.2,3.9,6.3,6.2,9.2L36,46.3l13.2,12.8c2.3-2.9,4.3-6,6.2-9.2L36,31.4L36,31.4z"/>
<path d="M63.9,10.6c-2.3,0.7-4.8,1.1-7.2,1.1c-8.5,0-16.3-4.3-20.7-11.6c-4.4,7.2-12.3,11.6-20.7,11.6c-2.4,0-4.8-0.4-7.2-1.1
	c-0.6,6.6-0.2,13.3,1.2,19.8h53.4C64.1,23.9,64.5,17.2,63.9,10.6z"/>
<path class="st1" d="M49.2,18.7v-2.3h-1.4v-1.6l-1.5-0.4h-0.1v-1.4c0,0-0.5,0.6-2.8,0.6c-2.2,0-3.5-0.7-5.2-0.7
	c-0.8-0.1-1.7,0.3-2.2,1v0.5H36v-0.5c-0.5-0.7-1.3-1-2.2-1c-1.7,0-3,0.7-5.2,0.7c-2.3,0-2.7-0.6-2.7-0.6v1.4h-0.1l-1.6,0.3v1.6h-1.4
	v2.3h1.4v3.7h-1.4v2.3h1.4v2.8c1.5,0.2,3,0.3,4.5,0.4c2.6,0,4-0.4,5.7-0.4v0.7c0.5,0.2,1,0.3,1.6,0.3c0.6,0,1.1-0.1,1.6-0.3v-0.7
	c1.7,0,3.1,0.4,5.7,0.4c1.5,0,3-0.1,4.5-0.4v-2.8h1.4v-2.3h-1.4v-3.7H49.2z"/>
<path d="M46.4,14.3l0-1.7L46,13c0,0-0.5,0.5-2.6,0.5l-2.8-0.4l-2.3-0.3c-0.8-0.1-1.6,0.2-2.2,0.8c-0.6-0.6-1.4-0.9-2.2-0.8l-2.3,0.3
	l-2.9,0.4c-2.1,0-2.5-0.5-2.5-0.5l-0.4-0.5l0,0.7v1.2L24,14.7v13l0.2,0c1.5,0.2,3,0.3,4.5,0.4c1.8,0,3.6-0.2,5.4-0.4v0.6l0.1,0.1
	c0.5,0.2,1.1,0.4,1.7,0.4c0.6,0,1.2-0.1,1.7-0.4l0.1-0.1v-0.6c1.8,0.2,3.6,0.3,5.5,0.4c1.5,0,3-0.1,4.5-0.4l0.2,0v-13L46.4,14.3z
	 M36.2,14.1c0.5-0.6,1.2-0.9,2-0.8l2.2,0.3l3,0.4c0.9,0.1,1.8-0.1,2.6-0.4v12.3c-0.8,0.3-1.7,0.4-2.6,0.4l-2.9-0.4l-2.3-0.3
	c-0.7,0-1.4,0.2-2,0.6L36.2,14.1z M26.1,13.6c0.8,0.3,1.6,0.5,2.5,0.4l3-0.4l2.2-0.3c0.8-0.1,1.5,0.2,2,0.8v12.1
	c-0.6-0.4-1.3-0.7-2-0.6l-2.3,0.3l-2.8,0.4c-2.1,0-2.5-0.5-2.5-0.5S26.1,14.5,26.1,13.6L26.1,13.6z M47.5,27.4
	c-1.4,0.2-2.8,0.3-4.2,0.3c-1.9,0-3.8-0.2-5.7-0.4l-0.3,0v0.8c-0.4,0.2-0.9,0.2-1.4,0.3c-0.5,0-0.9-0.1-1.3-0.2v-0.8l-0.3,0
	c-1.9,0.2-3.8,0.4-5.7,0.4c-1.4,0-2.8-0.1-4.3-0.3V15.1c0.2,0,0.9-0.2,1.2-0.3V26c0.1,0.3,0.6,0.8,2.9,0.8l2.9-0.4l2.2-0.3
	c0.8-0.1,1.5,0.2,2,0.8l0.1,0h0.3l0.1,0c0.5-0.6,1.2-0.9,2-0.8l2.2,0.3l3,0.4c2.3,0,2.9-0.6,3-0.7l0-11.3c0.3,0.1,0.9,0.2,1.1,0.3
	V27.4z"/>
<path d="M29.6,15.8c-0.2,0-0.3,0.1-0.4,0.2l-0.8,1.7c0,0,0,0-0.1,0c0,0-0.1,0-0.1-0.1s-0.1-0.3-0.3-0.8l-0.3-0.6
	c-0.1-0.2-0.2-0.3-0.2-0.4c-0.1-0.1-0.2-0.2-0.3-0.2c0,0,0,0,0-0.1c0,0,0,0,0-0.1h0.1c0.1,0,0.3,0,0.4,0c0.1,0,0.3,0,0.5,0h0.1
	c0,0,0,0,0,0c0,0,0,0,0,0.1c-0.1,0-0.3,0-0.3,0.1c0,0,0,0.1,0,0.1l0.5,1.2l0.4-1c0-0.1,0.1-0.2,0.1-0.3c0-0.1-0.1-0.2-0.3-0.2
	c0,0,0,0,0,0c0,0,0,0,0-0.1h0.1c0.1,0,0.2,0,0.4,0c0,0,0.2,0,0.3,0L29.6,15.8C29.6,15.7,29.6,15.7,29.6,15.8
	C29.6,15.8,29.6,15.8,29.6,15.8z"/>
<path d="M31.7,17.7c-0.6,0-1,0-1,0c-0.1,0-0.2,0-0.3,0s-0.3,0-0.5,0h-0.1c0,0,0,0,0,0c0,0,0,0,0-0.1c0.1,0,0.2,0,0.3-0.1
	c0.1-0.1,0.1-0.2,0.1-0.3c0-0.1,0-0.2,0-0.3c0-0.2,0-0.3,0-0.6v-0.3c0-0.2-0.1-0.2-0.3-0.3c0,0,0,0,0-0.1c0,0,0,0,0-0.1h0.1
	c0.1,0,0.3,0,0.7,0c0.4,0,0.7,0,0.8,0c0,0,0.2,0,0.2,0c0,0,0.1,0,0.1,0l0,0.5c0,0,0,0-0.1,0c0,0,0,0,0,0c-0.1-0.1-0.2-0.3-0.3-0.4
	c-0.1,0-0.1-0.1-0.2-0.1c0,0-0.1,0-0.3,0c-0.1,0-0.2,0-0.2,0s0,0,0,0.1c0,0,0,0.1,0,0.4v0.3h0.1c0.1,0,0.2,0,0.2,0
	c0.1,0,0.2-0.1,0.2-0.1c0-0.1,0-0.1,0-0.2c0,0,0,0,0.1,0c0,0,0,0,0.1,0c0,0.1,0,0.2,0,0.4c0,0.1,0,0.3,0,0.4c0,0,0,0-0.1,0
	c0,0,0,0-0.1,0c0-0.2,0-0.3-0.2-0.4c-0.1,0-0.1,0-0.2,0c0,0-0.1,0-0.1,0v0.5c0,0.1,0,0.2,0,0.2c0,0.1,0.1,0.1,0.1,0.1
	c0.1,0,0.1,0,0.2,0h0.3c0.1,0,0.2,0,0.2,0c0.1-0.1,0.3-0.3,0.3-0.4c0,0,0,0,0.1,0c0,0,0,0,0.1,0v0.5C31.8,17.7,31.8,17.7,31.7,17.7z
	"/>
<path d="M34.2,16.3C34.2,16.3,34.2,16.3,34.2,16.3C34.1,16.2,34,16.1,34,16c-0.1-0.1-0.2-0.2-0.4-0.2c0,0-0.2,0-0.2,0v0.9
	c0,0.1,0,0.3,0,0.6c0,0.2,0.1,0.2,0.4,0.3c0,0,0,0,0,0.1c0,0,0,0,0,0.1h-0.1c-0.1,0-0.4,0-0.5,0c-0.1,0-0.4,0-0.5,0c0,0,0,0,0-0.1
	c0,0,0,0,0-0.1c0.3,0,0.4-0.1,0.4-0.2c0-0.1,0-0.3,0-0.6v-0.7c0-0.1,0-0.2,0-0.3c-0.1,0-0.2,0-0.3,0c-0.2,0.1-0.3,0.3-0.4,0.4
	c0,0,0,0-0.1,0c0,0,0,0,0,0v-0.5c0,0,0-0.1,0.1-0.1s0.1,0,0.2,0c0.1,0,0.4,0,0.7,0c0.5,0,0.9,0,1,0c0,0,0.1,0,0.1,0c0,0,0,0.1,0,0.1
	L34.2,16.3C34.2,16.3,34.2,16.3,34.2,16.3z"/>
<path d="M29.5,19.5C29.4,19.5,29.4,19.5,29.5,19.5c-0.1-0.1-0.1-0.2-0.2-0.3C29.2,19.1,29,19,28.9,19c0,0-0.2,0-0.2,0v0.9
	c0,0.1,0,0.3,0,0.6c0,0.2,0.1,0.2,0.4,0.3c0,0,0,0,0,0.1c0,0,0,0,0,0.1h-0.1c-0.1,0-0.4,0-0.5,0c-0.1,0-0.4,0-0.5,0c0,0,0,0,0-0.1
	c0,0,0,0,0-0.1c0.3,0,0.4-0.1,0.4-0.2c0-0.1,0-0.3,0-0.6v-0.8c0-0.1,0-0.2,0-0.3c-0.1,0-0.2,0-0.3,0c-0.2,0.1-0.3,0.3-0.4,0.5
	c0,0,0,0-0.1,0c0,0,0,0,0,0V19c0,0,0-0.1,0.1-0.1s0.1,0,0.2,0c0.1,0,0.4,0,0.7,0c0.5,0,0.9,0,0.9,0c0.1,0,0.1,0,0.1,0s0,0,0,0.1
	L29.5,19.5C29.5,19.5,29.5,19.5,29.5,19.5z"/>
<path d="M31.8,20.9c-0.6,0-1,0-1,0s-0.2,0-0.3,0s-0.3,0-0.5,0h-0.1c0,0,0,0,0,0c0,0,0,0,0-0.1c0.1,0,0.2,0,0.3-0.1
	c0,0,0.1-0.1,0.1-0.3c0-0.1,0-0.2,0-0.3c0-0.2,0-0.3,0-0.6c0-0.2,0-0.3,0-0.3c0-0.2-0.1-0.2-0.3-0.3c0,0,0,0,0-0.1c0,0,0,0,0-0.1H30
	c0.1,0,0.3,0,0.7,0c0.4,0,0.7,0,0.8,0h0.2c0.1,0,0.1,0,0.1,0l0,0.5c0,0,0,0-0.1,0c0,0,0,0,0,0c-0.1-0.1-0.2-0.3-0.3-0.3
	c-0.1,0-0.1-0.1-0.2-0.1c0,0-0.1,0-0.3,0c-0.1,0-0.2,0-0.2,0s0,0,0,0.1c0,0,0,0.1,0,0.4v0.3h0.1c0.1,0,0.2,0,0.2,0
	c0.1,0,0.2-0.1,0.2-0.1c0-0.1,0-0.1,0-0.2c0,0,0,0,0.1,0c0,0,0,0,0.1,0c0,0.1,0,0.2,0,0.4c0,0.1,0,0.3,0,0.4c0,0,0,0-0.1,0
	c0,0,0,0-0.1,0c0-0.2,0-0.3-0.2-0.4c-0.1,0-0.1,0-0.2,0c0,0-0.1,0-0.1,0v0.5c0,0.1,0,0.2,0,0.2c0,0,0.1,0.1,0.1,0.1
	c0.1,0,0.1,0,0.2,0h0.3c0.1,0,0.1,0,0.2,0c0.1-0.1,0.3-0.3,0.3-0.4c0,0,0,0,0.1,0c0,0,0,0,0.1,0v0.5C31.9,20.9,31.9,20.9,31.8,20.9z
	"/>
<path d="M33.2,21c-0.2,0-0.3,0-0.5-0.1c0,0,0,0-0.1,0c-0.1,0-0.1,0-0.2,0.1c0,0-0.1,0-0.1-0.1c0,0,0-0.2,0-0.3c0,0,0-0.3,0-0.3
	c0,0,0.1,0,0.1,0h0c0.1,0.1,0.1,0.3,0.2,0.4c0.1,0.1,0.3,0.2,0.5,0.2c0.1,0,0.2,0,0.3-0.1c0.1-0.1,0.1-0.2,0.1-0.2
	c0-0.1,0-0.1-0.1-0.2c-0.1-0.1-0.1-0.1-0.2-0.2c-0.1,0-0.4-0.1-0.5-0.2c-0.1,0-0.2-0.1-0.3-0.2c-0.1-0.1-0.1-0.2-0.1-0.4
	c0-0.3,0.3-0.6,0.6-0.6c0,0,0,0,0,0c0.2,0,0.3,0,0.5,0.1c0,0,0.1-0.1,0.1-0.1c0,0,0.1,0,0.1,0.1c0,0.1,0,0.2,0,0.3
	c0,0.1,0,0.3,0,0.3c0,0-0.1,0-0.1,0c0,0,0,0,0,0c-0.1-0.1-0.1-0.3-0.2-0.4C33.4,19,33.3,19,33.1,19c-0.2,0-0.4,0.1-0.4,0.3
	c0,0,0,0,0,0c0,0.2,0.1,0.3,0.3,0.3c0.1,0,0.2,0.1,0.3,0.1c0.1,0,0.2,0.1,0.3,0.1c0.2,0.1,0.3,0.3,0.3,0.5
	C33.9,20.7,33.6,21,33.2,21C33.3,21,33.3,21,33.2,21z"/>
<path d="M30.3,24.2c-0.6,0-1,0-1,0c-0.1,0-0.2,0-0.3,0s-0.3,0-0.5,0h-0.1c0,0,0,0,0,0c0,0,0,0,0-0.1c0.1,0,0.2,0,0.3-0.1
	c0-0.1,0.1-0.2,0.1-0.3c0-0.1,0-0.2,0-0.3c0-0.2,0-0.3,0-0.6v-0.3c0-0.2-0.1-0.2-0.3-0.3c0,0,0,0,0-0.1c0,0,0,0,0-0.1h0.1
	c0.1,0,0.3,0,0.7,0c0.4,0,0.7,0,0.8,0c0,0,0.2,0,0.2,0c0,0,0.1,0,0.1,0l0,0.5c0,0,0,0-0.1,0c0,0,0,0,0,0c-0.1-0.1-0.2-0.3-0.3-0.4
	c-0.1,0-0.1-0.1-0.2-0.1c0,0-0.1,0-0.3,0c-0.1,0-0.2,0-0.2,0s0,0,0,0.1c0,0,0,0.1,0,0.4V23h0.1c0.1,0,0.2,0,0.2,0
	c0.1,0,0.2-0.1,0.2-0.1c0-0.1,0-0.1,0-0.2c0,0,0,0,0.1,0c0,0,0,0,0.1,0c0,0.1,0,0.2,0,0.4c0,0.1,0,0.3,0,0.4c0,0,0,0-0.1,0
	c0,0,0,0-0.1,0c0-0.2,0-0.3-0.2-0.4c-0.1,0-0.1,0-0.2,0c0,0-0.1,0-0.1,0v0.5c0,0.1,0,0.2,0,0.2c0,0.1,0.1,0.1,0.1,0.1
	c0.1,0,0.1,0,0.2,0h0.3c0.1,0,0.2,0,0.2,0c0.1-0.1,0.3-0.3,0.3-0.4c0,0,0.1,0,0.1,0v0.5C30.4,24.2,30.4,24.2,30.3,24.2z"/>
<path d="M33.3,22.2c-0.2,0-0.4,0.1-0.4,0.5v1.1c0,0,0,0.3,0,0.5c0,0-0.1,0-0.1,0c0,0,0,0-0.1,0l-1.4-1.6l0,0.3v0.6c0,0,0,0.2,0,0.2
	c0,0.1,0,0.2,0.1,0.2c0.1,0.1,0.2,0.1,0.3,0.1c0,0,0,0,0,0c0,0,0,0,0,0.1h-0.2c-0.1,0-0.2,0-0.4,0c-0.1,0-0.2,0-0.3,0h-0.1
	c0,0,0,0,0,0c0,0,0,0,0-0.1c0.1,0,0.2-0.1,0.3-0.1c0-0.1,0-0.2,0-0.2v-0.7c0-0.1,0-0.2,0-0.3c0-0.1,0-0.2-0.1-0.2
	c0,0-0.1-0.1-0.1-0.1c-0.1,0-0.2-0.1-0.2-0.1c0,0,0,0,0,0c0,0,0,0,0-0.1h0.1c0,0,0.3,0,0.4,0h0.1c0,0,0,0,0.1,0l1.1,1.2
	c0.1,0.1,0.2,0.2,0.2,0.3v-0.8c0-0.1,0-0.2,0-0.2c0-0.1,0-0.2-0.1-0.2c0-0.1-0.2-0.1-0.3-0.1c0,0,0,0,0-0.1c0,0,0,0,0,0h0.1
	c0.1,0,0.3,0,0.4,0C33,22.1,33.1,22.1,33.3,22.2L33.3,22.2C33.3,22.1,33.3,22.1,33.3,22.2C33.3,22.2,33.3,22.2,33.3,22.2z"/>
<path d="M40,15.8c-0.2,0-0.4,0.1-0.4,0.5v1.1c0,0,0,0.3,0,0.5c0,0-0.1,0-0.1,0c0,0,0,0-0.1,0l-1.4-1.6l0,0.3v0.6c0,0,0,0.2,0,0.2
	c0,0.1,0,0.2,0.1,0.2c0.1,0.1,0.2,0.1,0.3,0.1c0,0,0,0,0,0c0,0,0,0,0,0.1h-0.2c-0.1,0-0.2,0-0.4,0c-0.1,0-0.2,0-0.3,0h-0.1
	c0,0,0,0,0,0c0,0,0,0,0-0.1c0.1,0,0.2-0.1,0.3-0.1c0-0.1,0-0.2,0-0.2v-0.7c0-0.1,0-0.2,0-0.3c0-0.1,0-0.2-0.1-0.2
	c0,0-0.1-0.1-0.1-0.1c-0.1,0-0.2-0.1-0.2-0.1c0,0,0,0,0,0c0,0,0,0,0-0.1h0.1c0,0,0.3,0,0.4,0h0.1c0,0,0,0,0.1,0l1.1,1.2
	c0.1,0.1,0.2,0.2,0.2,0.3v-0.8c0-0.1,0-0.2,0-0.2c0-0.1,0-0.2-0.1-0.2c0-0.1-0.2-0.1-0.3-0.1c0,0,0,0,0-0.1c0,0,0,0,0,0h0.1
	c0.1,0,0.3,0,0.4,0C39.7,15.7,39.8,15.7,40,15.8L40,15.8C40,15.7,40,15.7,40,15.8C40,15.8,40,15.8,40,15.8z"/>
<path d="M42.2,17.5c-0.4,0.4-1,0.4-1.4,0c0,0,0,0,0,0c-0.4-0.4-0.4-1.1,0-1.6c0.2-0.2,0.4-0.3,0.7-0.3c0.2,0,0.4,0.1,0.5,0.2
	c0.3,0.2,0.5,0.5,0.5,0.9C42.5,17,42.4,17.3,42.2,17.5z M41.8,16c-0.1-0.1-0.2-0.2-0.4-0.2c-0.2,0-0.3,0.1-0.4,0.2
	c-0.1,0.2-0.2,0.5-0.2,0.7c0,0.3,0,0.5,0.2,0.7c0.1,0.1,0.2,0.2,0.4,0.2c0.2,0,0.4-0.1,0.4-0.3c0.1-0.2,0.1-0.4,0.1-0.7
	C42,16.5,42,16.2,41.8,16z"/>
<path d="M45.1,15.8c-0.2,0-0.3,0.1-0.4,0.2l-0.8,1.7c0,0,0,0-0.1,0c0,0-0.1,0-0.1-0.1s-0.1-0.3-0.3-0.8l-0.2-0.6
	C43.1,16.2,43.1,16,43,16c-0.1-0.1-0.2-0.2-0.3-0.2c0,0,0,0,0-0.1c0,0,0,0,0-0.1h0.1c0.1,0,0.3,0,0.4,0c0.1,0,0.3,0,0.5,0h0.1
	c0,0,0,0,0,0c0,0,0,0,0,0.1c-0.1,0-0.3,0-0.3,0.1c0,0,0,0.1,0,0.1l0.5,1.2l0.4-1c0-0.1,0.1-0.2,0.1-0.3c0-0.1-0.1-0.2-0.3-0.2
	c0,0,0,0,0,0c0,0,0,0,0-0.1h0.1c0.1,0,0.2,0,0.4,0c0,0,0.2,0,0.3,0L45.1,15.8C45.1,15.7,45.1,15.8,45.1,15.8L45.1,15.8z"/>
<path d="M39.4,19.5C39.3,19.5,39.3,19.5,39.4,19.5c-0.1-0.1-0.1-0.2-0.2-0.3c-0.1-0.1-0.2-0.2-0.4-0.2c0,0-0.2,0-0.2,0v0.9
	c0,0.1,0,0.3,0,0.6c0,0.2,0.1,0.2,0.4,0.3c0,0,0,0,0,0.1c0,0,0,0,0,0.1h-0.1c-0.1,0-0.4,0-0.5,0c-0.1,0-0.4,0-0.5,0c0,0,0,0,0-0.1
	c0,0,0,0,0-0.1c0.3,0,0.4-0.1,0.4-0.2c0-0.1,0-0.3,0-0.6v-0.8c0-0.1,0-0.2,0-0.3c-0.1,0-0.2,0-0.3,0c-0.2,0.1-0.3,0.3-0.4,0.5
	c0,0,0,0-0.1,0c0,0,0,0,0,0V19c0,0,0-0.1,0.1-0.1c0.1,0,0.1,0,0.2,0c0.1,0,0.4,0,0.7,0c0.5,0,0.9,0,0.9,0c0.1,0,0.1,0,0.1,0
	c0,0,0,0,0,0.1L39.4,19.5C39.4,19.5,39.4,19.5,39.4,19.5z"/>
<path d="M41.8,20.9h-0.2c-0.1,0-0.2,0-0.3,0c-0.2,0-0.4,0-0.5,0c0,0,0,0,0-0.1c0,0,0,0,0,0c0.2,0,0.3,0,0.3-0.1c0-0.1,0-0.2-0.1-0.3
	c-0.1-0.2-0.1-0.2-0.1-0.3c0,0,0,0-0.1,0h-0.6c-0.1,0.1-0.1,0.3-0.2,0.4c0,0,0,0.1,0,0.1c0,0.1,0.1,0.1,0.3,0.1c0,0,0,0,0,0.1
	c0,0,0,0,0,0h-0.1c-0.2,0-0.2,0-0.4,0c-0.1,0-0.4,0-0.4,0c0,0,0,0,0,0c0,0,0,0,0-0.1c0.1,0,0.2-0.1,0.3-0.2c0.1-0.2,0.2-0.3,0.3-0.5
	c0.1-0.3,0.3-0.6,0.3-0.8c0.1-0.2,0.1-0.2,0.1-0.3c0-0.1,0.1-0.2,0.1-0.2c0,0,0.1,0,0.1,0c0,0,0.1,0,0.1,0c0,0,0,0.1,0,0.1
	c0.1,0.3,0.2,0.5,0.4,0.9c0.1,0.2,0.1,0.3,0.2,0.5c0.1,0.1,0.1,0.2,0.1,0.3C41.6,20.8,41.7,20.8,41.8,20.9
	C41.8,20.9,41.8,20.9,41.8,20.9C41.8,20.9,41.8,20.9,41.8,20.9z M40.5,19.3L40.5,19.3c0,0.1-0.1,0.3-0.1,0.3
	c-0.1,0.3-0.1,0.4-0.2,0.4h0.6C40.8,19.9,40.6,19.5,40.5,19.3z"/>
<path d="M45,20.9l-0.8,0h-0.2c0,0,0,0,0-0.1c0,0,0,0,0-0.1c0.1,0,0.1,0,0.2,0c0.1,0,0.1-0.1,0.1-0.2v-1.5l0,0l-0.4,1
	c0,0.1-0.1,0.2-0.2,0.3c-0.1,0.2-0.1,0.3-0.2,0.5c0,0,0,0-0.1,0c0,0,0,0-0.1-0.1c-0.1-0.1-0.1-0.2-0.1-0.3l-0.7-1.5h0v0.4l0,1
	c0,0.3,0.2,0.4,0.4,0.4c0,0,0,0,0,0c0,0,0,0,0,0.1c0,0-0.1,0-0.1,0s-0.2,0-0.4,0c-0.1,0-0.2,0-0.3,0H42c0,0,0,0,0-0.1c0,0,0,0,0,0
	c0.1,0,0.2-0.1,0.3-0.1c0,0,0.1-0.1,0.1-0.3v-1c0-0.2,0-0.2-0.1-0.3c-0.1,0-0.2,0-0.3-0.1c0,0,0,0,0-0.1c0,0,0,0,0-0.1
	c0.1,0,0.2,0,0.4,0h0.5c0,0,0,0,0,0.1l0.6,1.4l0.1-0.3c0.1-0.2,0.2-0.6,0.4-0.9c0-0.1,0.1-0.2,0.1-0.2l0.8,0c0,0,0,0,0,0.1
	c0,0,0,0,0,0.1c-0.1,0-0.2,0-0.3,0.1c0,0,0,0.1,0,0.2v1c0,0.4,0.1,0.4,0.1,0.4c0.1,0,0.1,0,0.2,0C45,20.9,45,20.9,45,20.9
	C45,20.9,45,20.9,45,20.9z"/>
<path d="M39.3,22.8C39.3,22.8,39.3,22.8,39.3,22.8c-0.1-0.1-0.1-0.2-0.2-0.3c-0.1-0.1-0.2-0.2-0.4-0.2c0,0-0.2,0-0.2,0v0.9
	c0,0.1,0,0.3,0,0.6c0,0.2,0.1,0.2,0.4,0.3c0,0,0,0,0,0.1c0,0,0,0,0,0.1h-0.1c-0.1,0-0.4,0-0.5,0c-0.1,0-0.4,0-0.5,0c0,0,0,0,0-0.1
	c0,0,0,0,0-0.1c0.3,0,0.4-0.1,0.4-0.2c0-0.1,0-0.3,0-0.6v-0.7c0-0.1,0-0.2,0-0.3c-0.1,0-0.2,0-0.3,0c-0.2,0.1-0.3,0.3-0.4,0.5
	c0,0,0,0-0.1,0c0,0,0,0,0,0v-0.5c0,0,0-0.1,0.1-0.1c0.1,0,0.1,0,0.2,0c0.1,0,0.4,0,0.7,0c0.5,0,0.9,0,0.9,0c0.1,0,0.1,0,0.1,0
	c0,0,0,0,0,0.1L39.3,22.8C39.3,22.7,39.3,22.8,39.3,22.8z"/>
<path d="M41.9,22.2c-0.2,0-0.3,0.1-0.4,0.2l-0.8,1.7c0,0,0,0-0.1,0c0,0-0.1,0-0.1-0.1s-0.1-0.3-0.3-0.8L40,22.8
	c-0.1-0.2-0.2-0.3-0.2-0.4c-0.1-0.1-0.2-0.2-0.3-0.2c0,0,0,0,0-0.1c0,0,0,0,0-0.1h0.1c0.1,0,0.3,0,0.4,0c0.1,0,0.3,0,0.5,0h0.1
	c0,0,0,0,0,0c0,0,0,0,0,0.1c-0.1,0-0.3,0-0.3,0.1c0,0,0,0.1,0,0.1l0.5,1.2l0.4-1c0-0.1,0.1-0.2,0.1-0.3c0-0.1-0.1-0.2-0.3-0.2
	c0,0,0,0,0,0c0,0,0,0,0-0.1H41c0.1,0,0.2,0,0.4,0c0,0,0.2,0,0.3,0L41.9,22.2C41.9,22.2,41.9,22.2,41.9,22.2L41.9,22.2z"/>
<path d="M45,24.2l-0.8,0H44c0,0,0,0,0-0.1c0,0,0,0,0-0.1c0.1,0,0.1,0,0.2,0c0.1,0,0.1-0.1,0.1-0.2v-1.2c0,0,0-0.2,0-0.3h0l-0.4,1
	c-0.1,0.1-0.1,0.2-0.2,0.3c-0.1,0.2-0.2,0.4-0.2,0.5c0,0,0,0-0.1,0s0,0-0.1-0.1c-0.1-0.1-0.1-0.2-0.1-0.3l-0.7-1.5h0v0.4l0,1
	c0,0.3,0.2,0.4,0.4,0.4c0,0,0,0,0,0c0,0,0,0,0,0.1c0,0-0.1,0-0.1,0c0,0-0.2,0-0.4,0c-0.1,0-0.2,0-0.3,0h-0.1c0,0,0,0,0-0.1
	c0,0,0,0,0,0c0.1,0,0.2-0.1,0.3-0.1c0.1-0.1,0.1-0.2,0.1-0.3v-0.5v-0.6c0-0.2,0-0.2-0.1-0.3c-0.1,0-0.2,0-0.3-0.1c0,0,0,0,0-0.1
	c0,0,0,0,0-0.1c0.1,0,0.2,0,0.4,0h0.5c0,0,0,0,0,0.1l0.6,1.4l0.1-0.3c0.1-0.3,0.3-0.6,0.4-0.9c0-0.1,0.1-0.2,0.1-0.2l0.8,0
	c0,0,0,0,0,0.1c0,0,0,0,0,0.1c-0.1,0-0.2,0-0.3,0.1c0,0,0,0.1,0,0.2v1c0,0.4,0.1,0.4,0.1,0.4c0.1,0,0.1,0,0.2,0
	C45,24.1,45,24.1,45,24.2C45,24.1,45,24.1,45,24.2z"/>
</svg>
