<?xml version="1.0" encoding="utf-8"?>
<!-- Generator: Adobe Illustrator 26.4.1, SVG Export Plug-In . SVG Version: 6.00 Build 0)  -->
<svg version="1.1" id="Layer_1" xmlns="http://www.w3.org/2000/svg" xmlns:xlink="http://www.w3.org/1999/xlink" x="0px" y="0px"
	 viewBox="0 0 295.9 295.9" style="enable-background:new 0 0 295.9 295.9;" xml:space="preserve">
<style type="text/css">
	.st0{fill:#9D9795;}
	.st1{fill:#CFB991;}
</style>
<g transform="matrix(2.2533 0 0 2.2533 .12941 -.59454)">
	<path id="Shape" d="M0.7,100.6l10.9-25.6h14l7.8-18.3h-14l10.9-25.6h77.1c6.8,0,16.3,0.8,20.8,7.6s1.1,14.8-1,19.7
		C121.7,71.4,113.7,80,92.8,80H78.3l-8.7,20.6H0.7z"/>
	<path class="st0" d="M124.3,41.5c-2.5-3.8-7.8-5.4-16.8-5.4H33.4l-6.8,16.1h13.9L28.8,79.8h-14L8,95.9h58.5l6.8-16.1H59.1l1.9-4.4
		h31.8c20.4,0,26-8.9,30.1-18.7C125.2,51.4,127.1,45.8,124.3,41.5L124.3,41.5z M70.9,52.2h23.4c1.7,0,2.5,0.4,2.7,0.7
		c0.2,0.2,0.1,0.9-0.3,2c-1.2,2.8-4,4.5-7.5,4.5H67.8L70.9,52.2z"/>
	<path class="st1" d="M107.5,38.5H35.1l-4.7,11.2h13.9L30.4,82.3H16.4l-4.7,11.2h53.1l4.7-11.2H55.4l4-9.4h33.5
		c19.2,0,24-8.1,27.8-17.2C124.6,46.6,126.7,38.5,107.5,38.5z M89.1,61.7h-25l5.1-12h25c4.4,0,6.2,2.3,4.6,6
		C97.2,59.5,93.6,61.7,89.1,61.7L89.1,61.7z"/>
</g>
</svg>
